<svg xmlns="http://www.w3.org/2000/svg" width="300" height="350" viewBox="0 0 300 350"><defs><style>.a,.e{fill:#fff;}.b,.c,.d,.f{fill:none;}.b{stroke:#404040;}.b,.c,.d,.e,.f{stroke-miterlimit:10;}.c{stroke:#dddddc;}.d{stroke:#333;}.e{stroke:#dcdcdc;}.f{stroke:#555;}.g{fill:#ddd;opacity:0.67;}.h{fill:#404040;}.i{isolation:isolate;}.j{fill:#414141;}</style></defs><rect class="a" width="300" height="350"/><line class="b" x1="150" y1="150" x2="150" y2="250"/><line class="b" x1="150" y1="150" x2="220.711" y2="79.289"/><line class="c" x1="150" y1="150" x2="240.631" y2="192.262"/><line class="c" x1="150" y1="150" x2="249.619" y2="158.716"/><line class="c" x1="150" y1="150" x2="246.593" y2="175.882"/><line class="c" x1="150" y1="150" x2="207.358" y2="231.915"/><line class="c" x1="150" y1="150" x2="231.915" y2="207.358"/><line class="b" x1="150" y1="150" x2="220.711" y2="220.711"/><line class="c" x1="150" y1="150" x2="158.716" y2="249.619"/><line class="c" x1="150" y1="150" x2="192.262" y2="240.631"/><line class="c" x1="150" y1="150" x2="175.882" y2="246.593"/><line class="c" x1="150" y1="150" x2="107.738" y2="240.631"/><line class="c" x1="150" y1="150" x2="141.284" y2="249.619"/><line class="c" x1="150" y1="150" x2="124.118" y2="246.593"/><line class="c" x1="150" y1="150" x2="68.085" y2="207.358"/><line class="c" x1="150" y1="150" x2="92.642" y2="231.915"/><line class="b" x1="150" y1="150" x2="79.289" y2="220.711"/><line class="c" x1="150" y1="150" x2="50.381" y2="158.716"/><line class="c" x1="150" y1="150" x2="59.369" y2="192.262"/><line class="c" x1="150" y1="150" x2="53.407" y2="175.882"/><line class="c" x1="150" y1="150" x2="59.369" y2="107.738"/><line class="c" x1="150" y1="150" x2="50.381" y2="141.284"/><line class="c" x1="150" y1="150" x2="53.407" y2="124.118"/><line class="c" x1="150" y1="150" x2="92.642" y2="68.085"/><line class="c" x1="150" y1="150" x2="68.085" y2="92.642"/><line class="b" x1="150" y1="150" x2="79.289" y2="79.289"/><line class="c" x1="150" y1="150" x2="141.284" y2="50.381"/><line class="c" x1="150" y1="150" x2="107.738" y2="59.369"/><line class="c" x1="150" y1="150" x2="124.118" y2="53.407"/><line class="c" x1="150" y1="150" x2="158.716" y2="50.381"/><line class="c" x1="150" y1="150" x2="175.882" y2="53.407"/><line class="c" x1="150" y1="150" x2="192.262" y2="59.369"/><line class="c" x1="150" y1="150" x2="207.358" y2="68.085"/><line class="c" x1="150" y1="150" x2="231.915" y2="92.642"/><line class="c" x1="150" y1="150" x2="249.619" y2="141.284"/><line class="c" x1="150" y1="150" x2="246.593" y2="124.118"/><line class="c" x1="150" y1="150" x2="240.631" y2="107.738"/><line class="c" x1="150" y1="150" x2="248.481" y2="132.635"/><line class="c" x1="150" y1="150" x2="243.969" y2="115.798"/><line class="c" x1="150" y1="150" x2="184.202" y2="56.031"/><line class="c" x1="150" y1="150" x2="167.365" y2="51.519"/><line class="c" x1="150" y1="150" x2="132.635" y2="51.519"/><line class="c" x1="150" y1="150" x2="115.798" y2="56.031"/><line class="c" x1="150" y1="150" x2="85.721" y2="73.396"/><line class="c" x1="150" y1="150" x2="73.396" y2="85.721"/><line class="c" x1="150" y1="150" x2="56.031" y2="115.798"/><line class="c" x1="150" y1="150" x2="51.519" y2="132.635"/><line class="c" x1="150" y1="150" x2="51.519" y2="167.365"/><line class="c" x1="150" y1="150" x2="56.031" y2="184.202"/><line class="c" x1="150" y1="150" x2="73.396" y2="214.279"/><line class="c" x1="150" y1="150" x2="85.721" y2="226.604"/><line class="c" x1="150" y1="150" x2="115.798" y2="243.969"/><line class="c" x1="150" y1="150" x2="132.635" y2="248.481"/><line class="c" x1="150" y1="150" x2="167.365" y2="248.481"/><line class="c" x1="150" y1="150" x2="184.202" y2="243.969"/><line class="c" x1="150" y1="150" x2="214.279" y2="226.604"/><line class="c" x1="150" y1="150" x2="226.604" y2="214.279"/><line class="c" x1="150" y1="150" x2="243.969" y2="184.202"/><line class="c" x1="150" y1="150" x2="248.481" y2="167.365"/><line class="c" x1="150" y1="150" x2="226.604" y2="85.721"/><line class="c" x1="150" y1="150" x2="214.279" y2="73.396"/><line class="c" x1="150" y1="150" x2="236.603" y2="100"/><line class="c" x1="150" y1="150" x2="200" y2="63.397"/><line class="c" x1="150" y1="150" x2="100" y2="63.397"/><line class="c" x1="150" y1="150" x2="63.397" y2="100"/><line class="c" x1="150" y1="150" x2="63.397" y2="200"/><line class="c" x1="150" y1="150" x2="100" y2="236.603"/><line class="c" x1="150" y1="150" x2="200" y2="236.603"/><line class="c" x1="150" y1="150" x2="236.603" y2="200"/><circle class="b" cx="150" cy="150" r="100"/><line class="b" x1="150" y1="150" x2="50" y2="150"/><line class="b" x1="150" y1="150" x2="150" y2="50"/><line class="d" x1="150" y1="150" x2="250" y2="150"/><circle class="e" cx="150" cy="150" r="87"/><line class="f" x1="150" y1="150" x2="107.143" y2="150"/><line class="f" x1="150" y1="150" x2="150" y2="192.857"/><line class="f" x1="150" y1="150" x2="150" y2="107.143"/><line class="f" x1="150" y1="150" x2="192.857" y2="150"/><circle class="a" cx="150" cy="150" r="21.429"/><path class="g" d="M220.711,79.289A99.691,99.691,0,0,1,250,150H150Z"/><path class="b" d="M224.847,83.681A99.626,99.626,0,0,1,250,150H150l70.711-70.711"/><path class="h" d="M220.711,79.289a30.21,30.21,0,0,1,2.333,9.5l2.314-4.5,4.654-1.976A30.192,30.192,0,0,1,220.711,79.289Z"/><path class="h" d="M238.268,68.085q-.267-.057-2.452-.058-2.28,0-2.545.058H233.1v-.874h.588a4.014,4.014,0,0,0,1.007-.1.335.335,0,0,0,.228-.189c.013-.026.019-.367.019-1.027V64.95h-4.921v-.874l2.87-4.389q2.906-4.409,2.944-4.427a.984.984,0,0,1,.4-.038h.342l.114.114v8.74h1.748v.874H236.69v.969q0,.779.01.912a.344.344,0,0,0,.105.228,2.426,2.426,0,0,0,1.083.152h.55v.874Zm-3.211-4.009V57.729L230.9,64.057l2.07.019Z"/><path class="h" d="M241.022,64.019a1.047,1.047,0,0,1,.77.313,1.071,1.071,0,0,1,.313.789.978.978,0,0,1-.323.74,1.029,1.029,0,0,1-.721.3h-.133l.056.095a2.477,2.477,0,0,0,.874,1.007,2.414,2.414,0,0,0,1.387.4,2.02,2.02,0,0,0,1.939-1.141,5.8,5.8,0,0,0,.36-2.431,4.728,4.728,0,0,0-.513-2.641,1.494,1.494,0,0,0-1.216-.627,2.448,2.448,0,0,0-2.242,1.292.374.374,0,0,1-.142.161.841.841,0,0,1-.276.029c-.216,0-.336-.039-.361-.115q-.037-.073-.038-3.324c0-.381,0-.83-.009-1.35s-.01-.848-.01-.987c0-.71.038-1.064.115-1.064a.1.1,0,0,1,.076-.038l.342.114a6.75,6.75,0,0,0,2.526.494,6.476,6.476,0,0,0,2.584-.532.583.583,0,0,1,.247-.076c.1,0,.152.114.152.341v.248a4.859,4.859,0,0,1-3.9,1.842,4.57,4.57,0,0,1-1.064-.113l-.19-.038v3.268a3.249,3.249,0,0,1,3-.779,3.6,3.6,0,0,1,2.081,1.444,4.373,4.373,0,0,1,.808,2.622,4.153,4.153,0,0,1-1.208,2.983A3.96,3.96,0,0,1,243.34,68.5a3.16,3.16,0,0,1-2.032-.665,2.081,2.081,0,0,1-.627-.627,3.365,3.365,0,0,1-.723-1.691c0-.039,0-.1-.009-.181s-.01-.143-.01-.18a1.132,1.132,0,0,1,.3-.837A1.055,1.055,0,0,1,241.022,64.019Z"/><path class="h" d="M251.3,55.792a1.7,1.7,0,0,1,.646-.922,1.907,1.907,0,0,1,1.178-.37,1.932,1.932,0,0,1,1.938,1.045,1.378,1.378,0,0,1,.115.589,1.434,1.434,0,0,1-.115.608,1.85,1.85,0,0,1-1.842,1.045,2.134,2.134,0,0,1-1.255-.361,1.624,1.624,0,0,1-.665-.931,1.822,1.822,0,0,1-.019-.343A1.969,1.969,0,0,1,251.3,55.792Zm1.938,1.292a1.738,1.738,0,0,0,.95-.181.892.892,0,0,0,.248-.751c0-.518-.2-.829-.589-.93a4.274,4.274,0,0,0-.552-.019c-.064,0-.136,0-.218-.01l-.142-.009a.918.918,0,0,0-.685.218,1.04,1.04,0,0,0-.209.732.994.994,0,0,0,.209.741A1.569,1.569,0,0,0,253.239,57.084Z"/><g class="i"><path class="h" d="M143.754,29.327a1.074,1.074,0,0,1-.2.665.809.809,0,0,1-.523.323l-.076.02c0,.013.044.047.133.1a.8.8,0,0,0,.209.105,2.73,2.73,0,0,0,1.083.189,2.079,2.079,0,0,0,.494-.038,2.6,2.6,0,0,0,1.539-1.177,6.745,6.745,0,0,0,.741-3.686V25.7l-.095.153a2.431,2.431,0,0,1-2.185,1.292,3.22,3.22,0,0,1-2.584-1.311,4.762,4.762,0,0,1-.789-1.33,4.807,4.807,0,0,1-.237-1.635,4.686,4.686,0,0,1,.3-1.8,4.561,4.561,0,0,1,1.016-1.424,3.749,3.749,0,0,1,2.356-1.121l.057-.019h.095q.038,0,.123.009a1.213,1.213,0,0,0,.143.01,2.59,2.59,0,0,1,.55.038,3.594,3.594,0,0,1,2.413,1.957,9.707,9.707,0,0,1,.818,4.294,8.4,8.4,0,0,1-1.14,4.5,5.178,5.178,0,0,1-1.605,1.662,3.612,3.612,0,0,1-1.967.6,3.087,3.087,0,0,1-1.929-.56,1.922,1.922,0,0,1-.731-1.624q0-1.064,1.007-1.065a.933.933,0,0,1,.988,1.007Zm1.919-10.013a2.9,2.9,0,0,0-.532-.038,1.68,1.68,0,0,0-1.235.514,2.026,2.026,0,0,0-.523,1,10.925,10.925,0,0,0-.123,1.985,17.474,17.474,0,0,0,.094,2.052,1.909,1.909,0,0,0,.561,1.169,1.645,1.645,0,0,0,1.188.446h.076a1.745,1.745,0,0,0,1.491-1.073,5.524,5.524,0,0,0,.466-2.385,10.322,10.322,0,0,0-.153-2.127,2.038,2.038,0,0,0-.464-.989A1.608,1.608,0,0,0,145.673,19.314Z"/><path class="h" d="M151.791,20.036A3.353,3.353,0,0,1,154.7,18.5a3.505,3.505,0,0,1,2.432.949A4.158,4.158,0,0,1,158,20.739a10.867,10.867,0,0,1,.7,4.332,9.911,9.911,0,0,1-.817,4.5,3.289,3.289,0,0,1-1.558,1.6,3.575,3.575,0,0,1-1.615.4,3.35,3.35,0,0,1-3.193-1.995,9.926,9.926,0,0,1-.816-4.5,14.844,14.844,0,0,1,.237-2.916A6.417,6.417,0,0,1,151.791,20.036Zm4.274-.227a1.747,1.747,0,0,0-1.348-.609,1.808,1.808,0,0,0-1.368.609,2.3,2.3,0,0,0-.571,1.064,11.851,11.851,0,0,0-.189,2.166q0,.112-.01.74c-.006.418-.01.767-.01,1.045q0,1.825.038,2.547a10.783,10.783,0,0,0,.229,1.909,2.155,2.155,0,0,0,.57,1,1.686,1.686,0,0,0,1.311.571,1.665,1.665,0,0,0,1.292-.571,2.155,2.155,0,0,0,.57-1,10.9,10.9,0,0,0,.228-1.909q.037-.721.038-2.547c0-.278,0-.627-.01-1.045s-.009-.665-.009-.74a11.826,11.826,0,0,0-.19-2.166A2.286,2.286,0,0,0,156.065,19.809Z"/><path class="h" d="M162.278,18.858a1.708,1.708,0,0,1,.647-.921,1.905,1.905,0,0,1,1.178-.371,1.933,1.933,0,0,1,1.938,1.045,1.4,1.4,0,0,1,.114.589,1.449,1.449,0,0,1-.114.609,1.849,1.849,0,0,1-1.843,1.045,2.127,2.127,0,0,1-1.255-.362,1.634,1.634,0,0,1-.665-.93,1.947,1.947,0,0,1-.018-.342A2.125,2.125,0,0,1,162.278,18.858Zm1.939,1.292a1.73,1.73,0,0,0,.95-.18.894.894,0,0,0,.247-.75c0-.52-.2-.829-.589-.931a4.263,4.263,0,0,0-.552-.019c-.063,0-.135,0-.217-.01l-.143-.009a.912.912,0,0,0-.684.218,1.037,1.037,0,0,0-.209.731.991.991,0,0,0,.209.741A1.569,1.569,0,0,0,164.217,20.15Z"/></g><path class="h" d="M54.48,66.859q-.322-.057-3.021-.057-2.66,0-2.982.057h-.229v-.874h.494a10.706,10.706,0,0,0,1.425-.057,1.205,1.205,0,0,0,.456-.228V55.877a.448.448,0,0,0-.152.058,5.632,5.632,0,0,1-1.956.36h-.362v-.874h.362a5.292,5.292,0,0,0,2.659-.722,2.622,2.622,0,0,0,.589-.437c.025-.037.1-.057.228-.057a.479.479,0,0,1,.323.114V60l.019,5.7a1.84,1.84,0,0,0,1.235.285h1.121v.874Z"/><path class="h" d="M58.489,58.062a1.034,1.034,0,0,1-.807-.323,1.191,1.191,0,0,1-.3-.836,2.292,2.292,0,0,1,.855-1.814,3.626,3.626,0,0,1,1.976-.864H60.5c.443,0,.723,0,.836.018a4.587,4.587,0,0,1,1.273.4,2.826,2.826,0,0,1,1.577,1.785,1.814,1.814,0,0,1,.057.513,3.161,3.161,0,0,1-.693,2,3.84,3.84,0,0,1-1.739,1.264c-.063.025-.063.045,0,.058a1.331,1.331,0,0,0,.19.056,4.055,4.055,0,0,1,1.957,1.206,2.911,2.911,0,0,1,.8,2,3.309,3.309,0,0,1-.361,1.5,3.763,3.763,0,0,1-1.492,1.606,4.33,4.33,0,0,1-2.307.636,4.541,4.541,0,0,1-2.224-.532,2.735,2.735,0,0,1-1.311-1.425,2.152,2.152,0,0,1-.19-.931,1.135,1.135,0,0,1,.352-.865,1.265,1.265,0,0,1,1.719.01,1.16,1.16,0,0,1,.342.855,1.211,1.211,0,0,1-.247.76,1.124,1.124,0,0,1-.665.418l-.133.038a3.575,3.575,0,0,0,2.357.855,1.694,1.694,0,0,0,1.576-1.007,4.356,4.356,0,0,0,.323-1.919v-.38a2.432,2.432,0,0,0-1.216-2.413,3.991,3.991,0,0,0-1.159-.133l-.8-.019-.056-.038a.673.673,0,0,1-.039-.3.451.451,0,0,1,.057-.285.154.154,0,0,1,.095-.057,6.741,6.741,0,0,0,1.1-.094,1.649,1.649,0,0,0,1.273-.941,4.193,4.193,0,0,0,.437-1.986,1.806,1.806,0,0,0-.665-1.653,1.575,1.575,0,0,0-.893-.266,2.807,2.807,0,0,0-1.672.514.775.775,0,0,0-.171.123,1.038,1.038,0,0,0-.151.161l-.058.076c.038.013.082.025.133.038a.9.9,0,0,1,.637.361,1.164,1.164,0,0,1,.256.741,1.047,1.047,0,0,1-.313.77A1.094,1.094,0,0,1,58.489,58.062Z"/><path class="h" d="M67.609,62.793a1.047,1.047,0,0,1,.77.313,1.071,1.071,0,0,1,.313.789.978.978,0,0,1-.323.741,1.028,1.028,0,0,1-.722.3h-.132l.056.095a2.477,2.477,0,0,0,.874,1.007,2.407,2.407,0,0,0,1.387.4,2.02,2.02,0,0,0,1.939-1.14,5.808,5.808,0,0,0,.36-2.432,4.724,4.724,0,0,0-.513-2.64A1.494,1.494,0,0,0,70.4,59.6a2.446,2.446,0,0,0-2.242,1.292.387.387,0,0,1-.142.161.88.88,0,0,1-.276.028c-.216,0-.336-.038-.361-.114q-.039-.075-.038-3.324,0-.572-.009-1.35c-.007-.519-.01-.849-.01-.987q0-1.065.114-1.065a.111.111,0,0,1,.077-.038l.341.114a6.755,6.755,0,0,0,2.527.494,6.459,6.459,0,0,0,2.584-.532.583.583,0,0,1,.247-.076c.1,0,.152.114.152.342v.247a4.86,4.86,0,0,1-3.895,1.843,4.515,4.515,0,0,1-1.064-.114l-.19-.038v3.268a3.251,3.251,0,0,1,3-.778A3.6,3.6,0,0,1,73.3,60.418a4.372,4.372,0,0,1,.807,2.622A4.152,4.152,0,0,1,72.9,66.023a3.962,3.962,0,0,1-2.973,1.254,3.155,3.155,0,0,1-2.032-.665,2.081,2.081,0,0,1-.627-.627,3.353,3.353,0,0,1-.723-1.691c0-.038,0-.1-.009-.181s-.01-.142-.01-.179a1.131,1.131,0,0,1,.3-.837A1.056,1.056,0,0,1,67.609,62.793Z"/><path class="h" d="M77.888,54.566a1.7,1.7,0,0,1,.646-.921,1.9,1.9,0,0,1,1.178-.371,1.932,1.932,0,0,1,1.938,1.045,1.382,1.382,0,0,1,.115.589,1.439,1.439,0,0,1-.115.609,1.85,1.85,0,0,1-1.842,1.045,2.132,2.132,0,0,1-1.255-.362,1.625,1.625,0,0,1-.665-.93,1.829,1.829,0,0,1-.019-.343A1.975,1.975,0,0,1,77.888,54.566Zm1.938,1.292a1.74,1.74,0,0,0,.95-.18.9.9,0,0,0,.247-.751c0-.519-.2-.829-.588-.931a4.362,4.362,0,0,0-.552-.018c-.064,0-.136,0-.218-.01s-.131-.01-.143-.01a.913.913,0,0,0-.684.219,1.035,1.035,0,0,0-.209.731.994.994,0,0,0,.209.741A1.569,1.569,0,0,0,79.826,55.858Z"/><path class="h" d="M272.066,133.6a3.352,3.352,0,0,1,2.908-1.539,3.506,3.506,0,0,1,2.431.95,4.146,4.146,0,0,1,.874,1.292,10.863,10.863,0,0,1,.7,4.332,9.911,9.911,0,0,1-.817,4.5,3.287,3.287,0,0,1-1.558,1.6,3.577,3.577,0,0,1-1.615.4,3.348,3.348,0,0,1-3.192-2,9.924,9.924,0,0,1-.817-4.5,14.744,14.744,0,0,1,.238-2.916A6.376,6.376,0,0,1,272.066,133.6Zm4.275-.228a1.752,1.752,0,0,0-1.349-.608,1.811,1.811,0,0,0-1.368.608,2.293,2.293,0,0,0-.57,1.064,11.826,11.826,0,0,0-.19,2.166q0,.114-.01.741c0,.418-.009.766-.009,1.045q0,1.824.038,2.546a10.932,10.932,0,0,0,.228,1.91,2.158,2.158,0,0,0,.571,1,1.682,1.682,0,0,0,1.31.57,1.663,1.663,0,0,0,1.292-.57,2.165,2.165,0,0,0,.57-1,10.932,10.932,0,0,0,.228-1.91q.038-.721.038-2.546,0-.418-.01-1.045c-.006-.418-.008-.665-.008-.741a11.8,11.8,0,0,0-.191-2.166A2.284,2.284,0,0,0,276.341,133.376Z"/><path class="h" d="M282.554,132.426a1.7,1.7,0,0,1,.646-.921,1.907,1.907,0,0,1,1.178-.371,1.931,1.931,0,0,1,1.938,1.045,1.382,1.382,0,0,1,.115.589,1.428,1.428,0,0,1-.115.608,1.849,1.849,0,0,1-1.842,1.045,2.125,2.125,0,0,1-1.255-.361,1.627,1.627,0,0,1-.665-.931,1.809,1.809,0,0,1-.019-.342A1.975,1.975,0,0,1,282.554,132.426Zm1.938,1.292a1.729,1.729,0,0,0,.95-.181.894.894,0,0,0,.247-.75c0-.519-.2-.829-.588-.931a4.484,4.484,0,0,0-.552-.019c-.064,0-.136,0-.218-.01l-.143-.009a.917.917,0,0,0-.684.218,1.041,1.041,0,0,0-.209.732.991.991,0,0,0,.209.741A1.576,1.576,0,0,0,284.492,133.718Z"/><path class="h" d="M19.3,156.665q-.324-.057-3.022-.057-2.66,0-2.982.057h-.229v-.874h.494a10.706,10.706,0,0,0,1.425-.057,1.221,1.221,0,0,0,.456-.228v-9.822a.45.45,0,0,0-.152.056,5.582,5.582,0,0,1-1.956.362h-.361v-.874h.361A5.3,5.3,0,0,0,16,144.505a2.57,2.57,0,0,0,.589-.437c.025-.038.1-.056.228-.056a.483.483,0,0,1,.324.113v5.682l.018,5.7a1.843,1.843,0,0,0,1.236.285h1.121v.874Z"/><path class="h" d="M24.165,150.3a5.624,5.624,0,0,1-1.434-1.273,3.267,3.267,0,0,1-.2-3.116,3.386,3.386,0,0,1,1.226-1.377,3.336,3.336,0,0,1,1.852-.522,3.772,3.772,0,0,1,2.243.674,2.8,2.8,0,0,1,1.177,1.738,3.32,3.32,0,0,1,.02.456,2.807,2.807,0,0,1-.038.57,3.554,3.554,0,0,1-1.73,2.166l-.227.153q1.064.721,1.1.759a3.572,3.572,0,0,1,.295,5.462,3.9,3.9,0,0,1-2.821,1.093,3.8,3.8,0,0,1-3.44-1.71,2.83,2.83,0,0,1-.474-1.653Q21.715,151.65,24.165,150.3Zm-1.234,3.382a2.377,2.377,0,0,0,.816,1.852,2.762,2.762,0,0,0,1.9.732,3.079,3.079,0,0,0,1.415-.323,2.351,2.351,0,0,0,.96-.836,1.882,1.882,0,0,0,.324-1.045,1.935,1.935,0,0,0-.665-1.444q-.153-.151-1.577-1.083l-.58-.37q-.313-.2-.485-.313l-.151-.1-.229.114a3.7,3.7,0,0,0-1.577,1.9A3.094,3.094,0,0,0,22.931,153.682Zm5.015-6.764a1.958,1.958,0,0,0-.532-1.387,2.353,2.353,0,0,0-1.292-.721,5.824,5.824,0,0,0-.627-.02,2.3,2.3,0,0,0-1.69.685,1.367,1.367,0,0,0-.476,1.045,1.5,1.5,0,0,0,.685,1.292q.095.094,1.215.8l1.1.722c.013-.013.1-.066.247-.161a1.99,1.99,0,0,0,.343-.257A2.468,2.468,0,0,0,27.946,146.918Z"/><path class="h" d="M32.222,145.55a3.349,3.349,0,0,1,2.907-1.538,3.507,3.507,0,0,1,2.432.949,4.192,4.192,0,0,1,.874,1.292,10.885,10.885,0,0,1,.7,4.332,9.909,9.909,0,0,1-.818,4.5,3.293,3.293,0,0,1-1.557,1.6,3.584,3.584,0,0,1-1.616.4,3.348,3.348,0,0,1-3.192-2,9.926,9.926,0,0,1-.816-4.5,14.837,14.837,0,0,1,.237-2.916A6.357,6.357,0,0,1,32.222,145.55Zm4.274-.228a1.75,1.75,0,0,0-1.349-.608,1.811,1.811,0,0,0-1.368.608,2.306,2.306,0,0,0-.57,1.065,11.75,11.75,0,0,0-.189,2.166q0,.112-.01.74c-.006.418-.01.767-.01,1.045q0,1.826.038,2.546a10.824,10.824,0,0,0,.229,1.91,2.151,2.151,0,0,0,.57,1,1.683,1.683,0,0,0,1.31.57,1.662,1.662,0,0,0,1.292-.57,2.162,2.162,0,0,0,.571-1,10.969,10.969,0,0,0,.227-1.91q.039-.721.038-2.546c0-.278,0-.627-.009-1.045s-.009-.665-.009-.74a11.793,11.793,0,0,0-.191-2.166A2.288,2.288,0,0,0,36.5,145.322Z"/><path class="h" d="M42.709,144.372a1.7,1.7,0,0,1,.646-.921,1.909,1.909,0,0,1,1.178-.371,1.934,1.934,0,0,1,1.939,1.045,1.4,1.4,0,0,1,.114.589,1.444,1.444,0,0,1-.114.608,1.849,1.849,0,0,1-1.843,1.045,2.127,2.127,0,0,1-1.255-.361,1.629,1.629,0,0,1-.665-.931,1.809,1.809,0,0,1-.019-.342A1.975,1.975,0,0,1,42.709,144.372Zm1.938,1.292a1.733,1.733,0,0,0,.951-.181.894.894,0,0,0,.247-.75c0-.519-.2-.829-.589-.93a4.189,4.189,0,0,0-.552-.02c-.063,0-.136,0-.218-.01l-.142-.008a.918.918,0,0,0-.685.217,1.046,1.046,0,0,0-.209.732,1,1,0,0,0,.209.741A1.573,1.573,0,0,0,44.647,145.664Z"/><path class="h" d="M48.666,235.818a1.06,1.06,0,0,1-.836-.341,1.211,1.211,0,0,1-.3-.836,3.114,3.114,0,0,1,1.036-2.347,3.483,3.483,0,0,1,2.479-.979,4.12,4.12,0,0,1,2.708.884,3.714,3.714,0,0,1,1.32,2.309,5.526,5.526,0,0,1,.038.627,3.591,3.591,0,0,1-.665,2.071,12.62,12.62,0,0,1-2.147,2.185q-.684.588-1.9,1.748L49.274,242.2l1.444.019a22.892,22.892,0,0,0,3.174-.095c.049-.013.113-.146.189-.4a11.85,11.85,0,0,0,.267-1.292v-.057h.759v.057l-.532,3.477v.057H47.526v-.362a1.282,1.282,0,0,1,.038-.436q.018-.02,1.6-1.805,2.072-2.3,2.66-3.04a5.509,5.509,0,0,0,1.273-3.174,3.318,3.318,0,0,0-.655-2.1,2.187,2.187,0,0,0-1.834-.846,2.085,2.085,0,0,0-1.786.987c-.025.051-.063.121-.114.209a.435.435,0,0,0-.057.115c0,.012.032.019.095.019a.965.965,0,0,1,.77.342,1.185,1.185,0,0,1,.3.8,1.13,1.13,0,0,1-.315.807A1.08,1.08,0,0,1,48.666,235.818Z"/><path class="h" d="M58.166,235.818a1.06,1.06,0,0,1-.836-.341,1.211,1.211,0,0,1-.3-.836,3.114,3.114,0,0,1,1.036-2.347,3.483,3.483,0,0,1,2.479-.979,4.12,4.12,0,0,1,2.708.884,3.714,3.714,0,0,1,1.32,2.309,5.526,5.526,0,0,1,.038.627,3.591,3.591,0,0,1-.665,2.071,12.62,12.62,0,0,1-2.147,2.185q-.684.588-1.9,1.748L58.774,242.2l1.444.019a22.892,22.892,0,0,0,3.174-.095c.049-.013.113-.146.189-.4a11.85,11.85,0,0,0,.267-1.292v-.057h.759v.057l-.532,3.477v.057H57.026v-.362a1.282,1.282,0,0,1,.038-.436q.018-.02,1.6-1.805,2.072-2.3,2.66-3.04a5.509,5.509,0,0,0,1.273-3.174,3.318,3.318,0,0,0-.655-2.1,2.187,2.187,0,0,0-1.834-.846,2.085,2.085,0,0,0-1.786.987c-.025.051-.063.121-.114.209a.435.435,0,0,0-.057.115c0,.012.032.019.095.019a.965.965,0,0,1,.77.342,1.185,1.185,0,0,1,.3.8,1.13,1.13,0,0,1-.315.807A1.08,1.08,0,0,1,58.166,235.818Z"/><path class="h" d="M67.609,239.9a1.048,1.048,0,0,1,.77.314,1.069,1.069,0,0,1,.313.789.981.981,0,0,1-.323.741,1.033,1.033,0,0,1-.722.3h-.132l.056.094a2.465,2.465,0,0,0,.874,1.007,2.407,2.407,0,0,0,1.387.4,2.021,2.021,0,0,0,1.939-1.14,5.81,5.81,0,0,0,.36-2.433,4.727,4.727,0,0,0-.513-2.64,1.494,1.494,0,0,0-1.216-.627A2.448,2.448,0,0,0,68.16,238a.368.368,0,0,1-.142.161.822.822,0,0,1-.276.028c-.216,0-.336-.038-.361-.113q-.039-.077-.038-3.325,0-.57-.009-1.35t-.01-.987c0-.71.038-1.064.114-1.064a.109.109,0,0,1,.077-.039l.341.115a6.755,6.755,0,0,0,2.527.494,6.476,6.476,0,0,0,2.584-.532.587.587,0,0,1,.247-.077c.1,0,.152.115.152.343v.246a4.855,4.855,0,0,1-3.895,1.844,4.568,4.568,0,0,1-1.064-.114l-.19-.038v3.267a3.251,3.251,0,0,1,3-.778,3.6,3.6,0,0,1,2.081,1.443,4.372,4.372,0,0,1,.807,2.622,4.153,4.153,0,0,1-1.207,2.984,3.962,3.962,0,0,1-2.973,1.254,3.16,3.16,0,0,1-2.032-.665,2.1,2.1,0,0,1-.627-.627,3.356,3.356,0,0,1-.723-1.692c0-.037,0-.1-.009-.179s-.01-.143-.01-.181a1.127,1.127,0,0,1,.3-.836A1.053,1.053,0,0,1,67.609,239.9Z"/><path class="h" d="M77.888,231.677a1.7,1.7,0,0,1,.646-.922,1.907,1.907,0,0,1,1.178-.37,1.931,1.931,0,0,1,1.938,1.045,1.382,1.382,0,0,1,.115.589,1.431,1.431,0,0,1-.115.608,1.85,1.85,0,0,1-1.842,1.045,2.125,2.125,0,0,1-1.255-.361,1.627,1.627,0,0,1-.665-.931,1.816,1.816,0,0,1-.019-.342A1.975,1.975,0,0,1,77.888,231.677Zm1.938,1.292a1.729,1.729,0,0,0,.95-.181.894.894,0,0,0,.247-.75c0-.519-.2-.83-.588-.932a4.823,4.823,0,0,0-.552-.018c-.064,0-.136,0-.218-.01l-.143-.01a.917.917,0,0,0-.684.219,1.04,1.04,0,0,0-.209.732.992.992,0,0,0,.209.741A1.576,1.576,0,0,0,79.826,232.969Z"/><path class="h" d="M137.937,272.72a1.06,1.06,0,0,1-.836-.342,1.206,1.206,0,0,1-.3-.836,3.118,3.118,0,0,1,1.035-2.347,3.485,3.485,0,0,1,2.48-.978,4.122,4.122,0,0,1,2.708.884,3.713,3.713,0,0,1,1.32,2.308,5.8,5.8,0,0,1,.038.627,3.6,3.6,0,0,1-.665,2.071,12.6,12.6,0,0,1-2.148,2.185q-.684.59-1.9,1.748l-1.121,1.064,1.443.019a22.691,22.691,0,0,0,3.174-.095c.05-.012.113-.145.19-.4a12.178,12.178,0,0,0,.266-1.292v-.057h.76v.057l-.532,3.477v.057H136.8v-.361a1.29,1.29,0,0,1,.038-.437q.018-.018,1.6-1.8,2.071-2.3,2.66-3.04a5.516,5.516,0,0,0,1.272-3.174,3.316,3.316,0,0,0-.655-2.1,2.189,2.189,0,0,0-1.833-.846,2.083,2.083,0,0,0-1.786.988c-.026.05-.064.121-.114.209a.421.421,0,0,0-.057.114c0,.013.031.019.095.019a.966.966,0,0,1,.769.342,1.182,1.182,0,0,1,.295.8,1.133,1.133,0,0,1-.314.808A1.085,1.085,0,0,1,137.937,272.72Z"/><path class="h" d="M146.392,272.169q.018-.037.323-2.071l.3-2.033c0-.025.127-.038.379-.038h.38v.077c0,.125.1.234.285.322a2.98,2.98,0,0,0,1,.171q.711.039,3.2.038h2.3v.741l-1.292,1.768q-.285.4-.646.882t-.552.751c-.126.178-.2.285-.227.323a8.771,8.771,0,0,0-1.178,4.123q-.076.779-.1,2.129c0,.176,0,.357-.009.541s-.009.332-.009.446v.171a.98.98,0,0,1-.37.552,1.031,1.031,0,0,1-.637.227.926.926,0,0,1-.732-.313,1.268,1.268,0,0,1-.275-.865c0-.19.024-.55.075-1.083a13.3,13.3,0,0,1,1.768-5.149q.379-.608,1.6-2.3l.874-1.2h-1.767a22.348,22.348,0,0,0-3.478.114c-.05.025-.12.165-.209.418a6.342,6.342,0,0,0-.189.893,2.073,2.073,0,0,1-.058.361v.058h-.759Z"/><path class="h" d="M156.671,269.756a3.351,3.351,0,0,1,2.907-1.539,3.508,3.508,0,0,1,2.432.95,4.146,4.146,0,0,1,.874,1.292,10.867,10.867,0,0,1,.7,4.332,9.924,9.924,0,0,1-.817,4.5,3.291,3.291,0,0,1-1.558,1.6,3.577,3.577,0,0,1-1.615.4,3.35,3.35,0,0,1-3.193-2,9.926,9.926,0,0,1-.816-4.5,14.837,14.837,0,0,1,.237-2.916A6.378,6.378,0,0,1,156.671,269.756Zm4.274-.228a1.75,1.75,0,0,0-1.348-.608,1.808,1.808,0,0,0-1.368.608,2.29,2.29,0,0,0-.571,1.064,11.851,11.851,0,0,0-.189,2.166q0,.114-.01.741c-.006.418-.01.767-.01,1.045q0,1.824.038,2.546a10.811,10.811,0,0,0,.229,1.91,2.151,2.151,0,0,0,.57,1,1.684,1.684,0,0,0,1.311.57,1.665,1.665,0,0,0,1.292-.57,2.169,2.169,0,0,0,.57-1,10.932,10.932,0,0,0,.228-1.91q.037-.723.038-2.546c0-.278,0-.627-.01-1.045s-.009-.665-.009-.741a11.826,11.826,0,0,0-.19-2.166A2.281,2.281,0,0,0,160.945,269.528Z"/><path class="h" d="M167.158,268.578a1.707,1.707,0,0,1,.647-.922,1.9,1.9,0,0,1,1.177-.37,1.934,1.934,0,0,1,1.939,1.045,1.4,1.4,0,0,1,.114.589,1.447,1.447,0,0,1-.114.608,1.849,1.849,0,0,1-1.843,1.045,2.127,2.127,0,0,1-1.255-.361,1.629,1.629,0,0,1-.665-.931,1.947,1.947,0,0,1-.018-.342A2.118,2.118,0,0,1,167.158,268.578Zm1.939,1.292a1.722,1.722,0,0,0,.95-.181.894.894,0,0,0,.247-.75q0-.779-.589-.931a4.472,4.472,0,0,0-.552-.019c-.063,0-.135,0-.217-.01l-.143-.009a.92.92,0,0,0-.685.218,1.044,1.044,0,0,0-.209.732,1,1,0,0,0,.209.741A1.575,1.575,0,0,0,169.1,269.87Z"/><path class="h" d="M226.618,235.173a1.038,1.038,0,0,1-.807-.323,1.191,1.191,0,0,1-.3-.836,2.3,2.3,0,0,1,.855-1.815,3.641,3.641,0,0,1,1.976-.864h.285q.664,0,.836.019a4.584,4.584,0,0,1,1.273.4,2.83,2.83,0,0,1,1.577,1.786,1.847,1.847,0,0,1,.057.513,3.166,3.166,0,0,1-.693,2,3.843,3.843,0,0,1-1.739,1.262c-.063.027-.063.045,0,.058a1.282,1.282,0,0,0,.19.057,4.042,4.042,0,0,1,1.957,1.207,2.905,2.905,0,0,1,.8,2,3.308,3.308,0,0,1-.361,1.5,3.757,3.757,0,0,1-1.492,1.606,4.313,4.313,0,0,1-2.307.637,4.541,4.541,0,0,1-2.224-.533,2.737,2.737,0,0,1-1.311-1.424,2.141,2.141,0,0,1-.19-.931,1.138,1.138,0,0,1,.351-.865,1.266,1.266,0,0,1,1.72.01,1.16,1.16,0,0,1,.342.855,1.213,1.213,0,0,1-.247.76,1.124,1.124,0,0,1-.665.418l-.133.038a3.574,3.574,0,0,0,2.357.854,1.694,1.694,0,0,0,1.576-1.007,4.352,4.352,0,0,0,.323-1.918v-.38a2.432,2.432,0,0,0-1.216-2.413,3.919,3.919,0,0,0-1.159-.133l-.8-.019-.057-.038a.7.7,0,0,1-.038-.305.453.453,0,0,1,.057-.285.156.156,0,0,1,.095-.056,6.745,6.745,0,0,0,1.1-.095,1.647,1.647,0,0,0,1.273-.941,4.183,4.183,0,0,0,.437-1.985,1.8,1.8,0,0,0-.665-1.653,1.568,1.568,0,0,0-.893-.266,2.813,2.813,0,0,0-1.672.513.775.775,0,0,0-.171.123,1.087,1.087,0,0,0-.151.162l-.058.076a1.17,1.17,0,0,0,.133.037.909.909,0,0,1,.636.362,1.16,1.16,0,0,1,.257.741,1.045,1.045,0,0,1-.313.769A1.1,1.1,0,0,1,226.618,235.173Z"/><path class="h" d="M241.609,243.97q-.323-.057-3.021-.057-2.661,0-2.983.057h-.228V243.1h.494a10.716,10.716,0,0,0,1.425-.057,1.244,1.244,0,0,0,.456-.228v-9.824a.473.473,0,0,0-.152.058,5.587,5.587,0,0,1-1.956.36h-.362v-.874h.362a5.292,5.292,0,0,0,2.659-.721,2.622,2.622,0,0,0,.589-.437c.025-.038.1-.058.228-.058a.482.482,0,0,1,.323.115v5.68l.019,5.7a1.838,1.838,0,0,0,1.235.285h1.121v.874Z"/><path class="h" d="M245.238,239.9a1.048,1.048,0,0,1,.77.314,1.069,1.069,0,0,1,.313.789.981.981,0,0,1-.323.741,1.033,1.033,0,0,1-.722.3h-.132l.056.094a2.465,2.465,0,0,0,.874,1.007,2.407,2.407,0,0,0,1.387.4,2.019,2.019,0,0,0,1.938-1.14,5.79,5.79,0,0,0,.361-2.433,4.727,4.727,0,0,0-.513-2.64,1.494,1.494,0,0,0-1.216-.627A2.448,2.448,0,0,0,245.789,238a.368.368,0,0,1-.143.161.811.811,0,0,1-.275.028c-.216,0-.336-.038-.361-.113q-.039-.077-.038-3.325,0-.57-.009-1.35t-.01-.987c0-.71.038-1.064.114-1.064a.109.109,0,0,1,.077-.039l.341.115a6.755,6.755,0,0,0,2.527.494,6.479,6.479,0,0,0,2.584-.532.587.587,0,0,1,.247-.077c.1,0,.152.115.152.343v.246a4.855,4.855,0,0,1-3.9,1.844,4.568,4.568,0,0,1-1.064-.114l-.19-.038v3.267a3.251,3.251,0,0,1,3-.778,3.6,3.6,0,0,1,2.081,1.443,4.372,4.372,0,0,1,.807,2.622,4.153,4.153,0,0,1-1.207,2.984,3.962,3.962,0,0,1-2.973,1.254,3.165,3.165,0,0,1-2.033-.665,2.128,2.128,0,0,1-.627-.627,3.364,3.364,0,0,1-.722-1.692c0-.037,0-.1-.009-.179s-.01-.143-.01-.181a1.127,1.127,0,0,1,.3-.836A1.053,1.053,0,0,1,245.238,239.9Z"/><path class="h" d="M255.517,231.677a1.7,1.7,0,0,1,.646-.922,1.907,1.907,0,0,1,1.178-.37,1.931,1.931,0,0,1,1.938,1.045,1.4,1.4,0,0,1,.115.589,1.446,1.446,0,0,1-.115.608,1.85,1.85,0,0,1-1.842,1.045,2.123,2.123,0,0,1-1.255-.361,1.627,1.627,0,0,1-.665-.931,1.816,1.816,0,0,1-.019-.342A1.975,1.975,0,0,1,255.517,231.677Zm1.938,1.292a1.729,1.729,0,0,0,.95-.181.894.894,0,0,0,.247-.75q0-.779-.589-.932a4.8,4.8,0,0,0-.551-.018c-.064,0-.136,0-.218-.01l-.143-.01a.916.916,0,0,0-.684.219,1.04,1.04,0,0,0-.209.732.992.992,0,0,0,.209.741A1.576,1.576,0,0,0,257.455,232.969Z"/><path class="h" d="M263.082,158.9a1.038,1.038,0,0,1-.808-.323,1.194,1.194,0,0,1-.3-.836,2.3,2.3,0,0,1,.856-1.814,3.623,3.623,0,0,1,1.976-.864h.285c.443,0,.722,0,.836.018a4.628,4.628,0,0,1,1.273.4,2.832,2.832,0,0,1,1.577,1.787,1.839,1.839,0,0,1,.057.512,3.172,3.172,0,0,1-.693,2,3.838,3.838,0,0,1-1.739,1.263c-.063.026-.063.045,0,.058a1.331,1.331,0,0,0,.19.056,4.054,4.054,0,0,1,1.957,1.207,2.909,2.909,0,0,1,.8,2,3.322,3.322,0,0,1-.361,1.5,3.763,3.763,0,0,1-1.492,1.606,4.322,4.322,0,0,1-2.308.636,4.537,4.537,0,0,1-2.223-.532,2.735,2.735,0,0,1-1.311-1.425,2.133,2.133,0,0,1-.19-.93,1.142,1.142,0,0,1,.351-.866,1.266,1.266,0,0,1,1.72.01,1.164,1.164,0,0,1,.342.856,1.21,1.21,0,0,1-.247.759,1.12,1.12,0,0,1-.665.418l-.133.038a3.569,3.569,0,0,0,2.356.855,1.7,1.7,0,0,0,1.577-1.007,4.371,4.371,0,0,0,.323-1.919v-.38a2.432,2.432,0,0,0-1.216-2.413,3.991,3.991,0,0,0-1.159-.133l-.8-.018-.057-.038a.7.7,0,0,1-.038-.305.453.453,0,0,1,.057-.285.159.159,0,0,1,.1-.057,6.636,6.636,0,0,0,1.1-.095,1.645,1.645,0,0,0,1.273-.94,4.189,4.189,0,0,0,.437-1.985,1.809,1.809,0,0,0-.665-1.654,1.577,1.577,0,0,0-.893-.265,2.819,2.819,0,0,0-1.672.512.848.848,0,0,0-.171.123,1.1,1.1,0,0,0-.152.163l-.057.076c.038.012.082.025.133.037a.908.908,0,0,1,.636.361,1.161,1.161,0,0,1,.257.741,1.047,1.047,0,0,1-.313.77A1.094,1.094,0,0,1,263.082,158.9Z"/><path class="h" d="M277.256,156.277a1.791,1.791,0,0,0-1.178-.474,2.725,2.725,0,0,0-2.224,1.139,6.612,6.612,0,0,0-.892,3.838l.018.076.153-.247a2.43,2.43,0,0,1,2.109-1.139,3.183,3.183,0,0,1,1.539.36,3.965,3.965,0,0,1,.912.77,4.792,4.792,0,0,1,.741,1.073,5.11,5.11,0,0,1,.4,2.033v.342a3.371,3.371,0,0,1-.1.817,4.283,4.283,0,0,1-1.178,2.11,3.5,3.5,0,0,1-1.824,1.063,3.182,3.182,0,0,1-.76.076,3.314,3.314,0,0,1-.646-.056,3.372,3.372,0,0,1-2.242-1.521,8.87,8.87,0,0,1-1.121-4.788,8.382,8.382,0,0,1,.721-3.591,5.69,5.69,0,0,1,2.015-2.393,3.782,3.782,0,0,1,2.223-.723,2.606,2.606,0,0,1,1.776.589,2.032,2.032,0,0,1,.675,1.615,1.049,1.049,0,0,1-.275.76.972.972,0,0,1-.732.285,1,1,0,0,1-.731-.266.98.98,0,0,1-.276-.741A.94.94,0,0,1,277.256,156.277Zm-.836,4.56a1.658,1.658,0,0,0-1.368-.684,1.542,1.542,0,0,0-1.14.437,4.118,4.118,0,0,0-.932,3,8.039,8.039,0,0,0,.229,2.337,2.182,2.182,0,0,0,.645.968,1.6,1.6,0,0,0,1.084.4,1.7,1.7,0,0,0,1.482-.722,2.1,2.1,0,0,0,.361-.95,12.672,12.672,0,0,0,.076-1.6v-.608a13.1,13.1,0,0,0-.076-1.634A2.11,2.11,0,0,0,276.42,160.837Z"/><path class="h" d="M281.493,156.581a3.354,3.354,0,0,1,2.907-1.539,3.506,3.506,0,0,1,2.432.95,4.146,4.146,0,0,1,.874,1.292,10.867,10.867,0,0,1,.7,4.332,9.911,9.911,0,0,1-.817,4.5,3.291,3.291,0,0,1-1.558,1.6,3.577,3.577,0,0,1-1.615.4,3.348,3.348,0,0,1-3.192-2,9.924,9.924,0,0,1-.817-4.5,14.837,14.837,0,0,1,.237-2.916A6.417,6.417,0,0,1,281.493,156.581Zm4.275-.227a1.751,1.751,0,0,0-1.349-.609,1.808,1.808,0,0,0-1.368.609,2.287,2.287,0,0,0-.571,1.063,11.86,11.86,0,0,0-.189,2.166q0,.114-.01.741c-.006.418-.01.767-.01,1.045q0,1.824.039,2.546a10.834,10.834,0,0,0,.228,1.91,2.16,2.16,0,0,0,.57,1,1.686,1.686,0,0,0,1.311.571,1.665,1.665,0,0,0,1.292-.571,2.16,2.16,0,0,0,.57-1,10.932,10.932,0,0,0,.228-1.91q.037-.721.038-2.546c0-.278,0-.627-.01-1.045s-.009-.665-.009-.741a11.836,11.836,0,0,0-.19-2.166A2.285,2.285,0,0,0,285.768,156.354Z"/><path class="h" d="M291.03,155.4a1.711,1.711,0,0,1,.647-.922,1.9,1.9,0,0,1,1.177-.37,1.934,1.934,0,0,1,1.939,1.045,1.4,1.4,0,0,1,.114.589,1.455,1.455,0,0,1-.114.609,1.85,1.85,0,0,1-1.843,1.044,2.127,2.127,0,0,1-1.255-.361,1.633,1.633,0,0,1-.665-.931,1.933,1.933,0,0,1-.018-.341A2.125,2.125,0,0,1,291.03,155.4Zm1.939,1.292a1.73,1.73,0,0,0,.95-.18.894.894,0,0,0,.247-.75q0-.78-.589-.932a4.472,4.472,0,0,0-.552-.019c-.063,0-.135,0-.217-.009l-.143-.01a.916.916,0,0,0-.685.219,1.04,1.04,0,0,0-.209.731,1,1,0,0,0,.209.741A1.575,1.575,0,0,0,292.969,156.7Z"/><circle class="j" cx="150" cy="150" r="3"/><path class="h" d="M133.078,316.751c.014,0,.067,0,.16-.01s.173-.01.241-.01a2.18,2.18,0,0,1,1.679.98,5.773,5.773,0,0,1,.78,3.22,7.2,7.2,0,0,1-.04.86,14.638,14.638,0,0,1-1.379,4.98,11.285,11.285,0,0,1-1.59,2.48,6,6,0,0,1-1.79,1.5,2.714,2.714,0,0,1-1.08.28h-.141a1.916,1.916,0,0,1-1.46-.62,5.083,5.083,0,0,1-1.06-3.58,10.837,10.837,0,0,1,.2-2.019,13.14,13.14,0,0,1,3.019-6.541A4.278,4.278,0,0,1,133.078,316.751Zm.32,7.94.1-.34h-3.9l-.021.14a16.974,16.974,0,0,0-.62,3.7,2.8,2.8,0,0,0,.48,1.88.751.751,0,0,0,.581.241q.8,0,1.679-1.3A14.332,14.332,0,0,0,133.4,324.691Zm.96-5.18q0-2.04-1.06-2.04a1.886,1.886,0,0,0-1.36.86,10.791,10.791,0,0,0-1.7,3.6,9.012,9.012,0,0,0-.4,1.48c.653.014,1.3.02,1.94.02l1.94-.02a6.981,6.981,0,0,0,.36-1.56A13.048,13.048,0,0,0,134.358,319.511Z"/><path class="h" d="M142.143,324.238a.412.412,0,0,1,.265-.38h12.1a.415.415,0,0,1,.285.38.43.43,0,0,1-.266.361l-6.042.019h-6.042A.375.375,0,0,1,142.143,324.238Zm0,3.686a.375.375,0,0,1,.3-.38H154.53a.757.757,0,0,0,.085.066,1.039,1.039,0,0,1,.1.077.314.314,0,0,1,.057.094.365.365,0,0,1,.028.143.414.414,0,0,1-.285.38h-12.1A.411.411,0,0,1,142.143,327.924Z"/><path class="h" d="M169.389,330.831q-.267-.057-2.451-.057-2.281,0-2.546.057h-.171v-.874h.589a4.023,4.023,0,0,0,1.006-.095.339.339,0,0,0,.228-.19c.013-.026.019-.367.019-1.026v-.95h-4.92v-.874l2.869-4.389q2.906-4.408,2.944-4.427a.984.984,0,0,1,.4-.038h.342l.115.114v8.74h1.748v.874h-1.748v.969c0,.52,0,.823.009.912a.342.342,0,0,0,.1.228,2.41,2.41,0,0,0,1.083.152h.551v.874Zm-3.211-4.009v-6.346l-4.161,6.327,2.07.019Z"/><path class="h" d="M172.144,326.765a1.046,1.046,0,0,1,.769.313,1.072,1.072,0,0,1,.314.789.982.982,0,0,1-.324.741,1.026,1.026,0,0,1-.721.3h-.133l.056.1a2.477,2.477,0,0,0,.874,1.007,2.414,2.414,0,0,0,1.387.4,2.02,2.02,0,0,0,1.939-1.14,5.8,5.8,0,0,0,.36-2.432,4.728,4.728,0,0,0-.513-2.641,1.494,1.494,0,0,0-1.215-.627,2.449,2.449,0,0,0-2.243,1.292.356.356,0,0,1-.142.161.814.814,0,0,1-.276.029c-.215,0-.336-.038-.361-.114q-.037-.075-.038-3.325,0-.57-.009-1.349t-.01-.988c0-.71.038-1.064.115-1.064a.1.1,0,0,1,.076-.038l.342.114a6.75,6.75,0,0,0,2.526.494,6.476,6.476,0,0,0,2.584-.532.591.591,0,0,1,.247-.076c.1,0,.152.114.152.343v.246a4.857,4.857,0,0,1-3.9,1.843,4.568,4.568,0,0,1-1.064-.114l-.19-.038v3.268a3.259,3.259,0,0,1,3-.779,3.6,3.6,0,0,1,2.081,1.444,4.373,4.373,0,0,1,.808,2.622A4.156,4.156,0,0,1,177.435,330a3.964,3.964,0,0,1-2.974,1.254,3.16,3.16,0,0,1-2.032-.665,2.1,2.1,0,0,1-.627-.627,3.365,3.365,0,0,1-.723-1.691c0-.037,0-.1-.009-.18s-.009-.143-.009-.181a1.128,1.128,0,0,1,.3-.836A1.053,1.053,0,0,1,172.144,326.765Z"/><path class="h" d="M182.422,318.538a1.7,1.7,0,0,1,.646-.922,1.907,1.907,0,0,1,1.178-.37,1.935,1.935,0,0,1,1.939,1.045,1.4,1.4,0,0,1,.114.589,1.447,1.447,0,0,1-.114.608,1.851,1.851,0,0,1-1.843,1.045,2.127,2.127,0,0,1-1.255-.361,1.624,1.624,0,0,1-.665-.931,1.816,1.816,0,0,1-.019-.342A1.975,1.975,0,0,1,182.422,318.538Zm1.938,1.292a1.733,1.733,0,0,0,.951-.181.894.894,0,0,0,.247-.75c0-.519-.2-.83-.589-.931a4.484,4.484,0,0,0-.552-.019c-.063,0-.136,0-.218-.01l-.142-.009a.918.918,0,0,0-.685.218,1.04,1.04,0,0,0-.209.732.992.992,0,0,0,.209.741A1.571,1.571,0,0,0,184.36,319.83Z"/></svg>